<svg width="16" height="16" version="1.1" viewBox="0 0 4.2333 4.2333" xmlns="http://www.w3.org/2000/svg">
	<path d="m0.012213-0.0082086h4.2333v4.2333h-4.2333z" fill="#ff72ff" stroke-width=".265"/>
	<path d="m2.3901 2.9001c0-0.30268 0.032103-0.35313 0.30727-0.54575 0.42651-0.30268 0.55033-0.50447 0.55033-0.88971 0-0.62371-0.46778-1.0548-1.1419-1.0548-0.39441 0-0.70167 0.13758-0.89888 0.40816-0.15134 0.20179-0.21096 0.42192-0.21555 0.79798h0.62371c0-0.41275 0.19262-0.66499 0.50906-0.66499 0.27058 0 0.47696 0.22472 0.47696 0.5274 0 0.20637-0.055033 0.29351-0.32103 0.51364-0.36689 0.31186-0.47237 0.51823-0.45861 0.90805zm0.073378 0.25224h-0.68792v0.66957h0.68792z"/>
</svg>
